<mxfile host="app.diagrams.net" modified="2022-01-27T20:23:33.509Z" agent="5.0 (Windows NT 10.0; Win64; x64) AppleWebKit/537.36 (KHTML, like Gecko) Chrome/97.0.4692.99 Safari/537.36" etag="jSMEZB3uRMDC-Kw0lB1N" version="16.4.7" type="github">
  <diagram name="Page-1" id="9f46799a-70d6-7492-0946-bef42562c5a5">
    <mxGraphModel dx="677" dy="380" grid="1" gridSize="10" guides="1" tooltips="1" connect="1" arrows="1" fold="1" page="1" pageScale="1" pageWidth="1100" pageHeight="850" background="none" math="0" shadow="0">
      <root>
        <mxCell id="0" />
        <mxCell id="1" parent="0" />
        <mxCell id="i_3um2040csSib6zX7z7-1" value="GreasePencil" style="swimlane;fontStyle=0;childLayout=stackLayout;horizontal=1;startSize=26;fillColor=#dae8fc;horizontalStack=0;resizeParent=1;resizeParentMax=0;resizeLast=0;collapsible=1;marginBottom=0;strokeWidth=2;swimlaneLine=1;" parent="1" vertex="1">
          <mxGeometry x="160" y="250" width="120" height="78" as="geometry" />
        </mxCell>
        <mxCell id="i_3um2040csSib6zX7z7-2" value="- layers" style="text;fillColor=none;align=left;verticalAlign=top;spacingLeft=4;spacingRight=4;overflow=hidden;rotatable=0;points=[[0,0.5],[1,0.5]];portConstraint=eastwest;strokeWidth=1;glass=0;rounded=0;shadow=0;sketch=0;strokeColor=#000000;" parent="i_3um2040csSib6zX7z7-1" vertex="1">
          <mxGeometry y="26" width="120" height="26" as="geometry" />
        </mxCell>
        <mxCell id="i_3um2040csSib6zX7z7-3" value="⋮" style="text;strokeColor=none;fillColor=none;align=left;verticalAlign=top;spacingLeft=4;spacingRight=4;overflow=hidden;rotatable=0;points=[[0,0.5],[1,0.5]];portConstraint=eastwest;" parent="i_3um2040csSib6zX7z7-1" vertex="1">
          <mxGeometry y="52" width="120" height="26" as="geometry" />
        </mxCell>
        <mxCell id="i_3um2040csSib6zX7z7-18" style="edgeStyle=orthogonalEdgeStyle;rounded=0;orthogonalLoop=1;jettySize=auto;html=1;exitX=1;exitY=0.5;exitDx=0;exitDy=0;entryX=0;entryY=0.5;entryDx=0;entryDy=0;fontSize=27;" parent="1" source="i_3um2040csSib6zX7z7-5" target="i_3um2040csSib6zX7z7-9" edge="1">
          <mxGeometry relative="1" as="geometry" />
        </mxCell>
        <mxCell id="i_3um2040csSib6zX7z7-5" value="GPenLayer" style="swimlane;fontStyle=0;childLayout=stackLayout;horizontal=1;startSize=26;fillColor=#dae8fc;horizontalStack=0;resizeParent=1;resizeParentMax=0;resizeLast=0;collapsible=1;marginBottom=0;strokeWidth=2;swimlaneLine=1;" parent="1" vertex="1">
          <mxGeometry x="360" y="250" width="120" height="78" as="geometry" />
        </mxCell>
        <mxCell id="i_3um2040csSib6zX7z7-6" value="- frames" style="text;fillColor=none;align=left;verticalAlign=top;spacingLeft=4;spacingRight=4;overflow=hidden;rotatable=0;points=[[0,0.5],[1,0.5]];portConstraint=eastwest;strokeWidth=1;glass=0;rounded=0;shadow=0;sketch=0;strokeColor=#000000;" parent="i_3um2040csSib6zX7z7-5" vertex="1">
          <mxGeometry y="26" width="120" height="26" as="geometry" />
        </mxCell>
        <mxCell id="i_3um2040csSib6zX7z7-7" value="⋮" style="text;strokeColor=none;fillColor=none;align=left;verticalAlign=top;spacingLeft=4;spacingRight=4;overflow=hidden;rotatable=0;points=[[0,0.5],[1,0.5]];portConstraint=eastwest;" parent="i_3um2040csSib6zX7z7-5" vertex="1">
          <mxGeometry y="52" width="120" height="26" as="geometry" />
        </mxCell>
        <mxCell id="i_3um2040csSib6zX7z7-8" value="GPenFrame" style="swimlane;fontStyle=0;childLayout=stackLayout;horizontal=1;startSize=26;fillColor=#dae8fc;horizontalStack=0;resizeParent=1;resizeParentMax=0;resizeLast=0;collapsible=1;marginBottom=0;strokeWidth=2;swimlaneLine=1;" parent="1" vertex="1">
          <mxGeometry x="560" y="250" width="120" height="78" as="geometry" />
        </mxCell>
        <mxCell id="i_3um2040csSib6zX7z7-9" value="- strokes" style="text;fillColor=none;align=left;verticalAlign=top;spacingLeft=4;spacingRight=4;overflow=hidden;rotatable=0;points=[[0,0.5],[1,0.5]];portConstraint=eastwest;strokeWidth=1;glass=0;rounded=0;shadow=0;sketch=0;strokeColor=#000000;" parent="i_3um2040csSib6zX7z7-8" vertex="1">
          <mxGeometry y="26" width="120" height="26" as="geometry" />
        </mxCell>
        <mxCell id="i_3um2040csSib6zX7z7-10" value="⋮" style="text;strokeColor=none;fillColor=none;align=left;verticalAlign=top;spacingLeft=4;spacingRight=4;overflow=hidden;rotatable=0;points=[[0,0.5],[1,0.5]];portConstraint=eastwest;" parent="i_3um2040csSib6zX7z7-8" vertex="1">
          <mxGeometry y="52" width="120" height="26" as="geometry" />
        </mxCell>
        <mxCell id="i_3um2040csSib6zX7z7-14" value="GPenStroke" style="swimlane;fontStyle=0;childLayout=stackLayout;horizontal=1;startSize=26;fillColor=#dae8fc;horizontalStack=0;resizeParent=1;resizeParentMax=0;resizeLast=0;collapsible=1;marginBottom=0;strokeWidth=2;swimlaneLine=1;" parent="1" vertex="1">
          <mxGeometry x="760" y="250" width="120" height="80" as="geometry" />
        </mxCell>
        <mxCell id="i_3um2040csSib6zX7z7-16" value="⋮" style="text;strokeColor=none;fillColor=none;align=left;verticalAlign=middle;spacingLeft=4;spacingRight=4;overflow=hidden;rotatable=0;points=[[0,0.5],[1,0.5]];portConstraint=eastwest;" parent="i_3um2040csSib6zX7z7-14" vertex="1">
          <mxGeometry y="26" width="120" height="54" as="geometry" />
        </mxCell>
        <mxCell id="i_3um2040csSib6zX7z7-17" style="edgeStyle=orthogonalEdgeStyle;rounded=0;orthogonalLoop=1;jettySize=auto;html=1;exitX=1;exitY=0.5;exitDx=0;exitDy=0;entryX=0;entryY=0.5;entryDx=0;entryDy=0;fontSize=27;" parent="1" source="i_3um2040csSib6zX7z7-2" target="i_3um2040csSib6zX7z7-6" edge="1">
          <mxGeometry relative="1" as="geometry" />
        </mxCell>
        <mxCell id="i_3um2040csSib6zX7z7-19" style="edgeStyle=orthogonalEdgeStyle;rounded=0;orthogonalLoop=1;jettySize=auto;html=1;exitX=1;exitY=0.5;exitDx=0;exitDy=0;entryX=0;entryY=0.243;entryDx=0;entryDy=0;entryPerimeter=0;fontSize=27;" parent="1" source="i_3um2040csSib6zX7z7-9" target="i_3um2040csSib6zX7z7-16" edge="1">
          <mxGeometry relative="1" as="geometry" />
        </mxCell>
        <mxCell id="i_3um2040csSib6zX7z7-20" value="1" style="text;html=1;strokeColor=none;fillColor=none;align=center;verticalAlign=top;whiteSpace=wrap;rounded=0;shadow=0;glass=0;sketch=0;fontSize=10;" parent="1" vertex="1">
          <mxGeometry x="280" y="270" width="20" height="10" as="geometry" />
        </mxCell>
        <mxCell id="i_3um2040csSib6zX7z7-21" value="0..n" style="text;html=1;strokeColor=none;fillColor=none;align=center;verticalAlign=top;whiteSpace=wrap;rounded=0;shadow=0;glass=0;sketch=0;fontSize=10;" parent="1" vertex="1">
          <mxGeometry x="330" y="270" width="20" height="10" as="geometry" />
        </mxCell>
        <mxCell id="i_3um2040csSib6zX7z7-22" value="1" style="text;html=1;strokeColor=none;fillColor=none;align=center;verticalAlign=top;whiteSpace=wrap;rounded=0;shadow=0;glass=0;sketch=0;fontSize=10;" parent="1" vertex="1">
          <mxGeometry x="480" y="270" width="20" height="10" as="geometry" />
        </mxCell>
        <mxCell id="i_3um2040csSib6zX7z7-23" value="1" style="text;html=1;strokeColor=none;fillColor=none;align=center;verticalAlign=top;whiteSpace=wrap;rounded=0;shadow=0;glass=0;sketch=0;fontSize=10;" parent="1" vertex="1">
          <mxGeometry x="680" y="270" width="20" height="10" as="geometry" />
        </mxCell>
        <mxCell id="i_3um2040csSib6zX7z7-24" value="1..n" style="text;html=1;strokeColor=none;fillColor=none;align=center;verticalAlign=top;whiteSpace=wrap;rounded=0;shadow=0;glass=0;sketch=0;fontSize=10;" parent="1" vertex="1">
          <mxGeometry x="530" y="270" width="20" height="10" as="geometry" />
        </mxCell>
        <mxCell id="i_3um2040csSib6zX7z7-25" value="0..n" style="text;html=1;strokeColor=none;fillColor=none;align=center;verticalAlign=top;whiteSpace=wrap;rounded=0;shadow=0;glass=0;sketch=0;fontSize=10;" parent="1" vertex="1">
          <mxGeometry x="730" y="270" width="20" height="10" as="geometry" />
        </mxCell>
      </root>
    </mxGraphModel>
  </diagram>
</mxfile>
